# xmcd
#
# Track frame offsets:
#	150
#	27996
#	42017
#	58858
#	78092
#	93802
#	115827
#	130046
#	143829
#	164391
#	180492
#	193139
#	209262
#	223896
#	238452
#	256732
#	273365
#	309291
#
# Disc length: 4425
#
# Revision: 1
# Processed by: cddbd v1.5.1PL0 Copyright (c) Steve Scherf et al.
# Submitted via: FreeRIP 2.35 
# Normalized: r0:TDELIM( - )
#
DISCID=fa114712
DTITLE=The Blues Album
DYEAR=2003
DGENRE=Blues
TTITLE0=Gary Moore - Still Got The Blues
TTITLE1=Howlin' Wolf - Smokestack Lightnin'
TTITLE2=Popa Chubby - Palace Of The King
TTITLE3=Willie Dixon - You Shook Me
TTITLE4=Taj Mahal - She Caught The Katy (And Left Me A Mule To Ride)
TTITLE5=Jeff Beck Group - I Ain't Superstititous
TTITLE6=Albert Collins - Ice Pick
TTITLE7=Big Bill Broonzy - Key To The Highway
TTITLE8=Omar and The Howlers - Down In Missisippi
TTITLE9=Billy Boy Arnold - Fool For You
TTITLE10=Aretha Franklin - Today I Sing The Blues
TTITLE11=Hound Dog Taylor - Give Me Back My Wig
TTITLE12=Chicken Shack - I'd Rather Go Blind
TTITLE13=Bessie Smith - Muddy Water (A Missisippi Moan)
TTITLE14=Chet Atkins And Mark Knopfler - Poor Boy Blues
TTITLE15=Pepe Ahlqvist - Oh, What A Woman!
TTITLE16=The Allman Brothers Band - Get On With Your Life (live)
TTITLE17=Son House - Death Letter Blues
EXTD=YEAR: 2003
EXTT0=
EXTT1=
EXTT2=
EXTT3=
EXTT4=
EXTT5=
EXTT6=
EXTT7=
EXTT8=
EXTT9=
EXTT10=
EXTT11=
EXTT12=
EXTT13=
EXTT14=
EXTT15=
EXTT16=
EXTT17=
PLAYORDER=
